<?xml version="1.0" encoding="UTF-8"?>
<svg id="Layer_1" xmlns="http://www.w3.org/2000/svg" version="1.1" viewBox="0 0 4000 4000">
  <!-- Generator: Adobe Illustrator 29.1.0, SVG Export Plug-In . SVG Version: 2.1.0 Build 142)  -->
  <defs>
    <style>
      .st0 {
        fill: #e88846;
      }

      .st1 {
        fill: #e06000;
      }

      .st2 {
        fill: #fff;
      }

      .st3 {
        fill: #f5fdc6;
      }

      .st4 {
        fill: #0d0d0d;
      }

      .st5 {
        fill: #232323;
      }

      .st6 {
        fill: #6d1515;
      }

      .st7 {
        fill: #dae0a0;
      }

      .st8 {
        fill: #ffba40;
      }

      .st9 {
        opacity: .7;
      }
    </style>
  </defs>
  <path class="st8" d="M1318.7,2975s-5.2,88.8,132,53c137.2-35.7,182-73,295.9-84.6,37.9-3.9,43.3-34,20.4-58.8-.1,0-.2-.2-.2-.2-2.5-2.6-5.2-5.2-8.3-7.7,0,0-.1,0-.1,0-22.3-17.8-60.8-30.2-113.6-23.2,0,0-50.2-28.8-143.6-38.6-85.2-9-196.6,5-232.8,54.3-3.5,4.7-6.2,9.8-8.2,15.1-17.5,47,14.7,81.5,58.5,90.8Z"/>
  <path class="st0" d="M1318.7,2975s-5.2,88.8,132,53c137.2-35.7,182-73,295.9-84.6,37.9-3.9,43.3-34,20.4-58.8-.1,0-.2-.2-.2-.2-4.8-4.4-7.8-7.2-8.3-7.7,0,0-.1,0-.1,0,0,0,3.3,42.4-54.3,40-57.6-2.4-162.9,39.4-246.6,55.3-83.6,15.9-126.1-6.4-116.4-39.9l.9-16.2s-74.8,10.9-73.5-46.7c-3.5,4.7-6.2,9.8-8.2,15.1-17.5,47,14.7,81.5,58.5,90.8Z"/>
  <path class="st4" d="M1583,2864.6c-94.4-12.2-281.2-20.9-289.1,110.3-.5,13.7,10.2,25.2,23.9,25.7,14.4.6,26.3-11.4,25.7-25.7-2-46.7,46.1-65,86.3-75.2,48.3-11.1,100.6-13,150.2-10.2,16.1,1.2,19-22.3,3-25h0Z"/>
  <path class="st4" d="M1323.6,3039.9c-17.4-14.3-24.7-32-27.7-45.6-24.5-8.9-44.1-24.6-55.1-44.8-12.2-22.2-13.5-47.7-3.8-73.9,32.2-86.5,188.6-93.8,266.9-85.5,77.5,8.2,127.3,29,145.6,37.8,72.7-7.4,120.7,19,141.7,46.9,14.7,19.5,18.4,41.4,10.2,60.1-4.8,10.9-17.9,29.8-52.1,33.3-64.2,6.5-105,21.5-156.8,40.4-36.6,13.4-78.1,28.6-135.4,43.5-23.7,6.2-45,9.2-63.9,9.2-28.8,0-52.1-7.1-69.5-21.4ZM1648,2878c-5.3.7-10.8-.4-15.5-3-.5-.3-47.7-26.5-133.9-35.5-90.7-9.6-198.8,9.6-215.1,53.5-4.6,12.4-4.3,23.4.8,32.6,6.6,11.9,21.4,21.3,39.6,25.2,12,2.5,20.4,13.1,19.7,25.4,0,.6-.3,16.1,12,25.8,15.5,12.3,47.1,13.1,89,2.2,55-14.3,95.3-29.1,130.9-42.1,52.8-19.3,98.4-36,168.8-43.2,8.2-.8,11.3-3.2,11.7-3.7.3-1-.4-5.6-5.5-11.8-11.1-13.4-37.1-26.9-76.7-26.9-8,0-16.5.5-25.5,1.7Z"/>
  <path class="st3" d="M2613.2,2107s-96.3-597-640.1-654.3c-518-54.5-684.6,385.7-712.8,551.3,0,0-189.8,210.6-40.4,579.6,140.3,346.4,750.6,529.1,1185.4,284.7,351.4-197.5,352.4-558.5,339.9-689.7-3-30.9-25.4-56.6-55.7-63.3-22.3-5-49.6-9.2-76.2-8.3Z"/>
  <path class="st7" d="M1249.8,2531.8c4.2,12,8.9,24.2,13.9,36.6,123.8,305.7,613.8,483.9,1026.1,353.5,39.5-14.8,78.1-32.7,115.5-53.6,351.4-197.5,352.4-558.5,339.9-689.7-3-31-25.4-56.6-55.7-63.4-4.2-.9-8.6-1.8-13.1-2.7-12.1,166.1-79.2,404.3-341.4,551.7-365.4,205.4-854.9,109.1-1085.1-132.5Z"/>
  <path class="st4" d="M1616.8,2947.4c-204.7-71.7-357.8-200.9-420-354.5-79.9-197.2-64-350.5-36.7-444.4,24.9-85.5,63.3-138.5,76.8-155.3,18.5-101,74.4-247.6,177.5-363.8,138.2-155.8,332.3-225.4,561.2-201.3,230.5,24.3,418.2,149,542.8,360.7,74.3,126.2,105.2,246.6,115.2,293.7,19,.9,39.4,3.8,61.1,8.7,40.9,9.1,71,43.3,75,85.2,6.2,64.5,9.8,193.1-34.6,330-54,166.4-160.9,295.5-317.9,383.7-136.3,76.6-295.8,115.6-458.9,115.6-114.4,0-230.6-19.2-341.6-58.1ZM2614,2131.8c-12.5.4-23.3-8.5-25.3-20.8-.2-1.4-24.4-146.4-113-297-118-200.4-287.9-313.6-505.2-336.5-215.4-22.7-390,39.5-518.9,184.9-98.5,111-150.8,251.5-166.9,345.9-.8,4.6-2.9,8.9-6,12.4-.4.5-45.1,51.4-71.7,144.5-24.5,85.9-38.2,226.6,35.8,409.2,56.9,140.4,199.2,259.3,390.4,326.3,256.1,89.7,540.1,69.5,759.8-53.9,334.9-188.2,340.5-528.2,327.4-665.7-1.9-20.4-16.6-37.1-36.4-41.5-23.2-5.2-44.5-7.8-63.4-7.8-2.2,0-4.4,0-6.5.1Z"/>
  <path class="st3" d="M2536.4,2310l218.8,69.8c22.5,7.2,36.1,29.8,31.9,53-15.6,87.3-70.6,288-250.7,341-232.2,68.3-403.9-115.5-369.5-295.2,34.3-179.7,153-206.5,251.4-194.4,0,0,65.9,9.1,118.1,25.7Z"/>
  <path class="st7" d="M2459.7,2787.6c24.6-1.6,50.3-6.1,76.7-13.9,180.1-53,235.1-253.6,250.7-341,1.4-8,.7-15.8-1.7-23.1-33.1,91.2-97.5,198.3-221.8,234.8-172.2,50.6-310.9-37.8-356.5-160.2-24.2,145.7,85.7,292.2,252.5,303.3Z"/>
  <path class="st4" d="M2533,2320.8c70.7,31.4,143.1,57.4,215.8,82.5,9.8,3.7,15.8,14.7,13.8,25,0,0-.6,3-.6,3l-2.5,12.3c-35.1,165.2-130.3,313.6-314.6,317-164.6,5.5-293.5-145.1-246.2-306.1,33.5-122,100.5-147.2,218.4-159.5,11.4-1.3,13.1-17.5,2.5-21.3-72.6-27.9-159.8-4.3-211,54-48.6,54-74.9,140.7-72,211.8,4.8,142.1,126.9,262.7,266.8,274.7,51.5,5.5,104.4-1.7,153.3-18.1,151-50.1,228.8-208.7,254.5-355.7,8.2-36-14.1-74.3-49.7-84.1-3.7-1-14.9-4.5-18.8-5.6-66.9-19.5-134.2-37.7-202.8-51.6-13.4-2.5-19.2,16.2-6.9,21.7h0Z"/>
  <ellipse class="st4" cx="2032.8" cy="1958.9" rx="150.7" ry="120.5" transform="translate(30.6 3949.1) rotate(-88.8)"/>
  <ellipse class="st2" cx="2060.2" cy="1933" rx="55.1" ry="44.1" transform="translate(83.3 3951.1) rotate(-88.8)"/>
  <ellipse class="st4" cx="1515.9" cy="1888.3" rx="136.8" ry="109.4" transform="translate(-404.5 3363.3) rotate(-88.8)"/>
  <ellipse class="st2" cx="1540.8" cy="1864.8" rx="50.1" ry="40" transform="translate(-356.7 3365.1) rotate(-88.8)"/>
  <path class="st1" d="M1846.6,2046.4s-86.3,183.3-169.6,177.2c-83.3-6.1-103-177.2-103-177.2h272.6Z"/>
  <path class="st4" d="M1675.7,2240.4c-94.5-6.9-116.3-173.1-118.5-192.1-.6-4.8,1-9.6,4.2-13.1,3.2-3.6,7.8-5.6,12.6-5.6h272.6c5.8,0,11.1,3,14.2,7.8,3.1,4.9,3.5,11,1,16.2-9.2,19.5-90.7,187-180.9,187-1.7,0-3.5,0-5.2-.2ZM1593.4,2063.3c8.9,51.2,34.7,139.9,84.7,143.5,46.3,3.5,106.1-78.4,141-143.5h-225.7Z"/>
  <path class="st6" d="M1759.1,2073.6s-42.9,91.1-84.3,88.1c-41.4-3-51.2-88.1-51.2-88.1h135.5Z"/>
  <path class="st5" d="M1752,2078.1c-43.5,2.1-85.1,4.1-128.4,3.9l8.3-9.3c4.5,18.1,10.1,36.8,18.2,52.4,13,25.3,28.4,32,50.7,11.8,20-18.2,35.5-42.3,49.9-65.4.2-.3.6-1,.7-1.2-1.2,2.1-.8,6,.7,7.8h0ZM1766.1,2069.1c1.5,2.1,1.6,6,.3,8.5-.2.7-1,2.4-1.2,3.1-11.6,27.3-26.2,53.3-47.8,74.4-32.9,32.5-71.5,21.9-88.9-19.8-8.4-19.7-12.3-39.6-13.2-60.8-.6-4.9,3.3-9.4,8.3-9.4,47.1-.2,95.8,1.7,142.6,3.9h0Z"/>
  <path class="st8" d="M1850.7,2032.7c-20-35.7-63.9-108.9-108.4-150.7-15.7-14.8-39.3-17.3-57.9-6.4-36.8,21.6-98.8,69.2-137.1,159.2-4.3,10.1,1.4,21.6,12,24.3,41,10.4,144,29,279.6-.2,11.7-2.5,17.7-15.7,11.9-26.1Z"/>
  <path class="st4" d="M1555,2075.4c-9.8-2.5-18-9.1-22.5-18.2-4.5-9.1-4.8-19.7-.8-29,40.8-95.7,107.8-145.8,144.1-167.1,25.3-14.9,56.6-11.4,77.9,8.7,45.5,42.7,89.5,115.3,111.6,154.7h0c5.4,9.7,5.9,21,1.4,31.2-4.6,10.2-13.5,17.3-24.4,19.7-55.1,11.9-105.2,16-148,16-66.2,0-115.2-9.8-139.3-15.9ZM1692.9,1890.2c-32.7,19.2-93.2,64.4-130.2,151.2,0,.1-.2.4,0,.9.2.4.4.4.6.5,37.3,9.5,138.6,28.4,271.9-.4.2,0,.5-.1.7-.6.2-.4,0-.7,0-.8h0c-17.1-30.4-61.5-105.5-105.3-146.7-6.1-5.7-13.8-8.6-21.6-8.6s-11.1,1.5-16.2,4.5ZM1850.6,2032.8h0s0,0,0,0Z"/>
  <path class="st0" d="M1724.7,1926.2c-6.5,2.5-16,8.7-15.9,23.6l39.6-16c-3.5-3.6-7.5-6.4-12.5-8-3.7-1.2-7.7-1-11.3.4Z"/>
  <path class="st8" d="M2012.8,3041.3s3.2,88.9,136.4,40.4c133.2-48.5,174.3-89.8,286.7-112.1,37.4-7.4,39.9-38,14.8-60.5-.1,0-.2-.1-.3-.2-2.7-2.4-5.7-4.7-9-6.9,0,0-.1,0-.1,0-23.9-15.6-63.4-24.4-115.2-12.4,0,0-52.6-24-146.6-24.9-85.7-.9-195.2,23.5-226.6,76-3,5-5.3,10.3-6.8,15.8-13,48.5,22.4,79.8,66.8,84.8Z"/>
  <path class="st0" d="M2012.8,3041.3s3.2,88.9,136.4,40.4c133.2-48.5,174.3-89.8,286.7-112.1,37.4-7.4,39.9-38,14.8-60.5-.1,0-.2-.1-.3-.2-5.2-3.9-8.4-6.4-9-6.9,0,0-.1,0-.1,0,0,0,7.3,41.9-50.3,44.9-57.5,3-158.5,54.5-240.3,78.3-81.8,23.7-126.2,5.5-119.6-28.8l-.6-16.2s-73.5,17.9-77.5-39.5c-3,5-5.3,10.3-6.8,15.8-13,48.5,22.4,79.8,66.8,84.8Z"/>
  <path class="st4" d="M2265.5,2906.5c-95.1-3.3-281.9,5.7-277.4,137.1.8,13.7,12.5,24.2,26.2,23.4,14.3-.8,25.1-13.8,23.2-28-6.4-46.3,39.7-69.1,78.9-83,47-15.6,98.9-22.4,148.6-24.3,16.2-.3,16.8-24,.6-25.2h0Z"/>
  <path class="st4" d="M2023.8,3105.4c-18.6-12.6-27.6-29.6-31.8-42.8-25.2-6.5-46.2-20.4-59.1-39.4-14.3-20.9-18-46.2-10.8-73.2,23.9-89.2,179.1-111.1,257.6-110.3,78,.8,129.5,16.9,148.5,23.9,71.6-14.2,121.9,7.5,145.5,33.3,16.4,18,22.2,39.5,15.8,58.9-3.7,11.3-15,31.3-48.8,38-63.3,12.5-102.6,31.3-152.3,55-35.2,16.8-75.1,35.8-130.7,56.1-29.2,10.6-55.1,15.9-77.6,15.9s-41-5.2-56.3-15.5ZM2331.5,2913.7c-5.2,1.2-10.8.6-15.8-1.6-.5-.2-50-21.9-136.6-22.8-1.5,0-3,0-4.5,0-90.2,0-192.8,29.1-204.7,73.5-3.4,12.8-2.1,23.7,3.8,32.4,7.7,11.3,23.3,19.2,41.8,21.3,12.2,1.4,21.5,11.1,22,23.4,0,.6,1.2,16,14.3,24.5,16.6,10.8,48.1,8.6,88.8-6.2,53.4-19.4,92.1-37.9,126.3-54.2,50.8-24.2,94.6-45.1,164-58.9,8.1-1.6,10.9-4.3,11.2-4.8.2-1-.9-5.6-6.6-11.3-10.7-10.6-32.4-20.3-63.6-20.3-12.1,0-25.6,1.5-40.5,4.9Z"/>
  <path class="st3" d="M1724.8,1380.6c7.8,75.7,66.3,117.5,134.8,107.2l49.9-10.4s-54-81.9,42.8-97.3c96.8-15.5,178.1,48.7,178.1,48.7,0,0,5.2-36.8-6.6-81.6-10.9-41.1-36.2-88.9-93.3-121.1-119.2-67.2-266.7-39.7-298.8,81.1-7.2,27-9.1,51.7-6.9,73.5Z"/>
  <path class="st7" d="M1955.6,1370.1s-241.5,77.7-217.8-49.5c0,0-19.5,136,49.9,157.1,74,22.6,101.4,1.5,107.3-38.7,5.9-40.2,37.1-60.9,60.6-69Z"/>
  <g class="st9">
    <path class="st2" d="M1724.8,1380.6c4.2-30.4,27.6-116.2,157.4-137.7,121.2-20.1,207.5,63.7,241.5,104.3-10.9-41.1-36.2-88.9-93.3-121.1-119.2-67.2-266.7-39.7-298.8,81.1-7.2,27-9.1,51.7-6.9,73.5Z"/>
  </g>
  <path class="st4" d="M1917.5,1472c-2.2-12.2-4.8-24.6-4.9-34.7-.2-9,.9-16.5,6.9-22.6,8.5-8.7,28.3-13,42.5-13.7,36.3-3.3,72.7,5.5,105.9,20.1,16.3,7.4,32.8,16.4,47.3,26.7,10.3,8.4,25.4,7,33.9-3.3,5.1-5.7,5.7-14,6.3-20.8.7-7.6,1-15.1,1-22.7.5-71.1-31.3-143.7-90.5-185.4-116.2-84.6-315.1-77-359.6,82.2-10,40.1-12.8,82,1.3,122.1,20.5,64.6,89.2,104.2,153.4,77.1,8.9-3.7,7.1-17.2-2.2-18.7-17.6-3-33.5-7.1-47.3-13.5-62-27.7-71.1-93-53.4-152.6,34.3-117.3,190.3-111.9,275.2-51.4,39.1,27,63.2,70.6,70.3,117.3,2.5,15.5,3.6,31.4,2.5,47.1l39.2-15.7c-62.3-47.3-160.9-74.2-234.2-38.2-44.1,22.6-45.4,80.1-9.8,111.2,7.7,6.7,19.1-1.1,16.2-10.7h0Z"/>
</svg>